<svg xmlns="http://www.w3.org/2000/svg" xml:space="preserve" style="fill-rule:evenodd;clip-rule:evenodd;stroke-linejoin:round;stroke-miterlimit:2" viewBox="0 0 498 498"><g transform="matrix(6.55409 0 0 6.50474 -8730.96 -258.971)"><clipPath id="a"><path d="M1369.47 65.447h31.896v41.529h-31.896z"/></clipPath><g clip-path="url(#a)"><path d="M1376.24 75.32c5.44 0 7.03-2.681 7.03-6.282s-1.59-6.198-7.03-6.198h-8.8v12.48zm-22.37-25.043h22.2c14.49 0 20.94 7.872 20.94 18.761 0 7.706-3.27 13.987-10.3 16.919l12.31 19.097h-16.08l-9.72-17.171h-5.78v17.171h-13.57z" style="fill:#fa5800;fill-rule:nonzero"/></g></g><path d="M1216.39 63.242v19.755h22.02l.04 64.479 21.2.192.09-64.671h32.84l12.02-.021c.04-.966-3.94-19.554-30.01-19.842z" style="fill:#006ec4;fill-rule:nonzero" transform="matrix(4.18891 0 0 4.25164 -5045.35 -203.157)"/><path d="M1211.71 124.509h104.98V19.533h-104.98zm112.24 7.26h-119.5V12.273h119.5z" style="fill:#fa5800;fill-rule:nonzero" transform="translate(-5018.54 -51.138)scale(4.16667)"/></svg>